<svg version="1.1" id="Layer_1" xmlns="http://www.w3.org/2000/svg" xmlns:xlink="http://www.w3.org/1999/xlink" x="0px" y="0px"
	 width="100%" viewBox="0 0 950 262" enable-background="new 0 0 950 262" xml:space="preserve">
<path fill="#FEFFFF" opacity="1.000000" stroke="none" 
	d="
M667.000000,263.000000 
	C444.666656,263.000000 222.833328,263.000000 1.000000,263.000000 
	C1.000000,175.666672 1.000000,88.333336 1.000000,1.000000 
	C317.666656,1.000000 634.333313,1.000000 951.000000,1.000000 
	C951.000000,88.333336 951.000000,175.666672 951.000000,263.000000 
	C856.500000,263.000000 762.000000,263.000000 667.000000,263.000000 
M91.874847,72.633377 
	C94.248291,76.805878 97.217346,79.977509 93.554771,85.924309 
	C83.856415,101.671188 73.322357,116.670029 61.209248,130.641586 
	C56.969349,135.531998 52.890030,139.412292 45.785236,137.917221 
	C43.551933,137.447281 41.114330,137.664261 38.813293,137.934036 
	C37.836063,138.048630 36.969582,139.107849 36.052765,139.737747 
	C36.986931,140.374695 37.896255,141.513947 38.859562,141.561569 
	C43.014675,141.767029 47.206413,141.413315 51.340481,141.772888 
	C52.983147,141.915771 55.175766,142.974304 55.990536,144.305832 
	C67.269737,162.739120 77.078911,181.888626 84.728798,202.169739 
	C87.262154,208.886093 89.201408,214.849518 83.822983,220.866653 
	C83.435867,221.299744 83.295433,221.953339 83.040314,222.504410 
	C83.393883,222.934082 83.747452,223.363739 84.101013,223.793396 
	C85.279823,223.000397 86.573250,222.333771 87.614609,221.389221 
	C90.119484,219.117188 89.670708,214.359619 94.666443,214.037231 
	C117.241051,212.580490 139.752213,211.174149 162.416504,213.447250 
	C170.132782,214.221161 176.315735,215.164597 179.013885,223.305313 
	C179.091904,223.540695 179.528839,223.657150 181.300369,224.786942 
	C181.109085,222.356522 181.445129,220.702774 180.819641,219.589050 
	C174.064301,207.560532 167.247452,195.563950 160.226990,183.688934 
	C158.549652,180.851746 158.455811,178.562103 160.293716,175.923996 
	C167.673477,165.331161 174.879074,154.613464 182.469360,144.174835 
	C183.556000,142.680420 186.386642,141.799194 188.430222,141.762878 
	C200.755264,141.543884 213.087097,141.723663 225.413773,141.556305 
	C226.801620,141.537460 228.171265,140.178818 229.549362,139.441467 
	C228.179092,138.908951 226.813461,137.928482 225.437820,137.914230 
	C213.609970,137.791748 201.773148,137.608459 189.955048,137.969360 
	C185.729813,138.098389 183.777222,136.388901 181.949509,133.007889 
	C175.129791,120.392387 169.912720,107.161369 165.590759,93.506729 
	C164.449631,89.901543 164.998688,87.251793 166.824829,84.200867 
	C172.239441,75.154678 177.418015,65.967201 182.688873,56.834976 
	C182.363739,56.383820 182.038605,55.932663 181.713470,55.481506 
	C180.423187,56.243504 178.604156,56.688358 177.926666,57.817909 
	C172.729950,66.482079 167.867828,75.348244 162.599594,83.966942 
	C161.729645,85.390160 159.363815,86.756142 157.721695,86.718910 
	C139.382507,86.303078 121.242020,84.053780 103.430092,79.625633 
	C101.342201,79.106567 99.103584,77.294617 97.906052,75.451118 
	C94.379791,70.022743 91.443680,64.214119 88.033600,58.704720 
	C87.286247,57.497272 85.532005,56.913044 84.241463,56.041809 
	C84.487457,57.627434 84.356621,59.406086 85.051155,60.761948 
	C87.018166,64.601936 89.322998,68.268883 91.874847,72.633377 
M590.561829,189.258698 
	C565.625854,195.043854 549.056274,172.547394 551.470398,155.914627 
	C576.760132,155.914627 602.138611,155.914627 627.462280,155.914627 
	C629.253845,133.683090 611.807922,112.929146 589.679565,110.317223 
	C562.317932,107.087570 543.843506,124.666954 540.022095,147.248169 
	C535.805786,172.162704 550.806213,195.264511 573.691101,199.371109 
	C598.953857,203.904404 618.241516,191.507065 624.289124,174.222031 
	C623.340271,173.635742 622.320679,173.096725 621.401001,172.421509 
	C617.639343,169.659836 615.081543,170.079193 612.438354,174.392868 
	C607.645935,182.214142 600.475891,187.161774 590.561829,189.258698 
M823.277222,120.196449 
	C809.303955,108.233582 786.675232,106.442207 771.585510,116.104347 
	C754.982727,126.735306 746.696045,148.251297 751.647888,166.423615 
	C761.534241,202.704468 796.255432,205.951141 817.547852,194.684021 
	C825.951965,190.236893 831.795410,183.268341 835.724976,174.671661 
	C827.604675,169.387283 827.812561,169.552887 822.562500,176.143295 
	C813.618530,187.370773 801.800354,192.010620 787.670593,189.467102 
	C772.151733,186.673523 760.120178,170.523956 762.587891,155.823822 
	C787.861816,155.823822 813.239502,155.823822 838.848328,155.823822 
	C838.537537,141.636551 834.091736,129.909241 823.277222,120.196449 
M424.168396,158.104660 
	C424.142242,156.127029 424.134338,154.148956 424.087067,152.171829 
	C423.659729,134.295609 409.940460,117.211220 394.765228,112.550377 
	C374.770752,106.409386 356.324982,111.719498 344.387024,127.588310 
	C333.570068,141.966949 331.696411,157.796341 339.160736,174.131088 
	C347.115601,191.539246 361.041595,200.066116 380.338562,200.200272 
	C405.253326,200.373444 423.149994,179.534927 424.168396,158.104660 
M446.657013,138.266083 
	C446.099701,141.875977 445.107666,145.480118 445.059906,149.096741 
	C444.846924,165.223206 444.897980,181.353210 444.881042,197.481964 
	C444.880249,198.258820 445.139862,199.035934 445.269653,199.764832 
	C448.949860,199.764832 452.330231,199.764832 456.003754,199.764832 
	C456.003754,197.571823 455.955322,195.758835 456.011261,193.949081 
	C456.545532,176.668457 456.869049,159.375549 457.835693,142.118805 
	C458.030762,138.636627 459.947693,134.622650 462.334320,132.006607 
	C470.213531,123.369980 480.629089,122.632957 491.356659,124.508484 
	C502.235352,126.410423 507.702271,132.506470 508.041168,143.567307 
	C508.560974,160.531921 508.607635,177.511078 508.848206,194.484146 
	C508.873199,196.246826 508.851562,198.010147 508.851562,199.872650 
	C512.813171,199.872650 516.064697,199.872650 519.464172,199.872650 
	C519.618835,199.000916 519.828247,198.370361 519.828247,197.739838 
	C519.826904,182.250595 520.010376,166.757233 519.702271,151.273727 
	C519.530640,142.648804 519.003235,133.868805 514.080444,126.308029 
	C506.403168,114.516853 494.713348,111.490868 481.551392,112.028076 
	C463.807526,112.752281 451.227783,122.022156 446.657013,138.266083 
M284.533997,83.857246 
	C281.446320,83.857246 278.358643,83.857246 275.390320,83.857246 
	C275.390320,88.010963 275.390320,91.398300 275.390320,95.159103 
	C284.037354,95.159103 292.298645,95.159103 301.076508,95.159103 
	C301.076508,130.232315 301.076508,164.924530 301.076508,199.628235 
	C305.323975,199.628235 309.036072,199.628235 313.269165,199.628235 
	C313.269165,164.569733 313.269165,129.879074 313.269165,94.814247 
	C322.059723,94.814247 330.322784,94.814247 338.682495,94.814247 
	C338.682495,91.032753 338.682495,87.639534 338.682495,83.857117 
	C320.753815,83.857117 303.138428,83.857117 284.533997,83.857246 
M721.961731,112.407845 
	C720.536987,111.946884 719.119202,111.462891 717.686401,111.028542 
	C703.190918,106.634277 688.990051,115.718033 687.560974,130.716034 
	C686.663574,140.134552 690.860413,147.545898 698.722107,152.630859 
	C704.420349,156.316437 710.489624,159.423340 716.268494,162.990616 
	C723.145935,167.236008 725.885071,174.091934 723.474548,180.339615 
	C721.034119,186.664810 713.039978,191.277237 705.908691,189.227310 
	C700.382202,187.638718 695.340698,184.363174 689.416565,181.517014 
	C687.985535,183.204285 685.879761,185.687103 683.728943,188.223038 
	C691.260803,197.164505 700.595215,200.712311 711.758118,200.042191 
	C721.084106,199.482346 730.230408,192.872467 733.308533,184.026474 
	C736.745667,174.148758 735.140198,165.130356 727.182861,158.135361 
	C723.008484,154.465790 717.886536,151.867996 713.164856,148.829239 
	C710.106628,146.861053 706.838562,145.182816 703.945312,143.002121 
	C697.560974,138.190170 695.823120,132.002640 699.014587,126.565216 
	C701.978760,121.515274 710.103333,118.881660 716.236084,121.527786 
	C720.284973,123.274750 723.964905,125.876740 728.318848,128.389572 
	C730.253845,126.302162 732.328491,124.064156 735.052063,121.126083 
	C730.521240,118.041801 726.593689,115.368202 721.961731,112.407845 
M884.941040,189.992493 
	C874.412170,190.987198 866.330872,184.166565 865.956421,173.152740 
	C865.515259,160.178009 865.731140,147.180573 865.708252,134.192902 
	C865.706909,133.434998 866.117432,132.676376 866.474548,131.438736 
	C872.825745,131.438736 879.089722,131.438736 885.478699,131.438736 
	C885.478699,128.017227 885.478699,125.146179 885.478699,121.729080 
	C878.533569,121.729080 871.968994,121.729080 865.014648,121.729080 
	C865.014648,107.752968 865.014648,94.324936 865.014648,80.819122 
	C861.218140,80.819122 857.847839,80.819122 854.530823,80.819122 
	C854.350342,81.764412 854.176514,82.250755 854.176147,82.737228 
	C854.153992,112.383629 854.038208,142.030670 854.208984,171.676041 
	C854.254272,179.541962 857.213196,186.576111 862.504700,192.540207 
	C869.953613,200.935654 884.192993,202.834290 893.564392,196.433929 
	C892.543945,193.790207 891.499695,191.084641 890.387085,188.201950 
	C888.540894,188.886902 887.154175,189.401352 884.941040,189.992493 
z"/>
<path fill="#458EEA" opacity="1.000000" stroke="none" 
	d="
M91.684814,72.318680 
	C89.322998,68.268883 87.018166,64.601936 85.051155,60.761948 
	C84.356621,59.406086 84.487457,57.627434 84.241463,56.041809 
	C85.532005,56.913044 87.286247,57.497272 88.033600,58.704720 
	C91.443680,64.214119 94.379791,70.022743 97.906052,75.451118 
	C99.103584,77.294617 101.342201,79.106567 103.430092,79.625633 
	C121.242020,84.053780 139.382507,86.303078 157.721695,86.718910 
	C159.363815,86.756142 161.729645,85.390160 162.599594,83.966942 
	C167.867828,75.348244 172.729950,66.482079 177.926666,57.817909 
	C178.604156,56.688358 180.423187,56.243504 181.713470,55.481506 
	C182.038605,55.932663 182.363739,56.383820 182.688873,56.834976 
	C177.418015,65.967201 172.239441,75.154678 166.824829,84.200867 
	C164.998688,87.251793 164.449631,89.901543 165.590759,93.506729 
	C169.912720,107.161369 175.129791,120.392387 181.949509,133.007889 
	C183.777222,136.388901 185.729813,138.098389 189.955048,137.969360 
	C201.773148,137.608459 213.609970,137.791748 225.437820,137.914230 
	C226.813461,137.928482 228.179092,138.908951 229.549362,139.441467 
	C228.171265,140.178818 226.801620,141.537460 225.413773,141.556305 
	C213.087097,141.723663 200.755264,141.543884 188.430222,141.762878 
	C186.386642,141.799194 183.556000,142.680420 182.469360,144.174835 
	C174.879074,154.613464 167.673477,165.331161 160.293716,175.923996 
	C158.455811,178.562103 158.549652,180.851746 160.226990,183.688934 
	C167.247452,195.563950 174.064301,207.560532 180.819641,219.589050 
	C181.445129,220.702774 181.109085,222.356522 181.300369,224.786942 
	C179.528839,223.657150 179.091904,223.540695 179.013885,223.305313 
	C176.315735,215.164597 170.132782,214.221161 162.416504,213.447250 
	C139.752213,211.174149 117.241051,212.580490 94.666443,214.037231 
	C89.670708,214.359619 90.119484,219.117188 87.614609,221.389221 
	C86.573250,222.333771 85.279823,223.000397 84.101013,223.793396 
	C83.747452,223.363739 83.393883,222.934082 83.040314,222.504410 
	C83.295433,221.953339 83.435867,221.299744 83.822983,220.866653 
	C89.201408,214.849518 87.262154,208.886093 84.728798,202.169739 
	C77.078911,181.888626 67.269737,162.739120 55.990536,144.305832 
	C55.175766,142.974304 52.983147,141.915771 51.340481,141.772888 
	C47.206413,141.413315 43.014675,141.767029 38.859562,141.561569 
	C37.896255,141.513947 36.986931,140.374695 36.052765,139.737747 
	C36.969582,139.107849 37.836063,138.048630 38.813293,137.934036 
	C41.114330,137.664261 43.551933,137.447281 45.785236,137.917221 
	C52.890030,139.412292 56.969349,135.531998 61.209248,130.641586 
	C73.322357,116.670029 83.856415,101.671188 93.554771,85.924309 
	C97.217346,79.977509 94.248291,76.805878 91.684814,72.318680 
M126.893600,208.197922 
	C141.447433,208.882202 156.001266,209.566467 171.413742,210.291107 
	C165.921204,200.823227 160.759171,191.805527 155.416397,182.896210 
	C154.869217,181.983749 153.263123,181.286148 152.108673,181.223724 
	C141.847733,180.669006 131.524048,180.778580 121.328094,179.679306 
	C113.601112,178.846222 109.545258,182.025406 106.355865,188.531799 
	C102.741966,195.904205 98.329826,202.885284 93.945503,210.598099 
	C105.139633,209.816650 115.558395,209.089325 126.893600,208.197922 
M81.851318,185.643158 
	C84.763847,192.956467 87.676376,200.269791 90.927452,208.433182 
	C96.625626,198.548111 101.919304,189.599228 106.901451,180.480133 
	C107.688339,179.039841 107.712166,176.521210 106.994492,175.026642 
	C101.973618,164.570587 96.699585,154.234924 91.395149,143.918030 
	C90.862534,142.882095 89.600357,141.522568 88.655045,141.505341 
	C78.921829,141.328018 69.184128,141.396530 58.819344,141.396530 
	C59.879429,143.351486 60.516193,144.481903 61.112991,145.633057 
	C67.908089,158.740021 74.697090,171.850128 81.851318,185.643158 
M107.301735,99.195045 
	C104.547607,94.479050 101.793480,89.763062 99.290092,85.476433 
	C86.503540,103.056023 73.842697,120.462769 61.189224,137.859390 
	C69.749016,137.859390 78.565132,138.011124 87.368042,137.737549 
	C89.236671,137.679474 91.598106,136.526505 92.805328,135.095703 
	C97.824921,129.146545 102.334427,122.768112 107.329765,116.797066 
	C112.099220,111.096024 112.853462,105.591911 107.301735,99.195045 
M141.202911,89.349640 
	C128.600540,87.644051 115.998169,85.938469 102.836403,84.157173 
	C106.856148,91.190758 110.447838,97.705788 114.310638,104.055908 
	C115.167831,105.465065 116.848694,106.978889 118.376480,107.274124 
	C126.982506,108.937157 135.648361,110.305222 144.321396,111.587265 
	C145.344635,111.738518 147.061462,111.068428 147.566544,110.237778 
	C151.395279,103.941147 155.001953,97.509491 158.984741,90.586548 
	C152.920181,90.147865 147.527420,89.757774 141.202911,89.349640 
M168.480103,112.958817 
	C166.280716,106.734207 164.081314,100.509605 161.562622,93.381287 
	C157.511276,100.387421 153.820862,106.636818 150.314529,112.987846 
	C149.834320,113.857628 149.958618,115.349731 150.333572,116.356049 
	C152.705704,122.722656 155.156677,129.063004 157.770004,135.333527 
	C158.199249,136.363480 159.536423,137.685318 160.492371,137.717102 
	C166.867340,137.928940 173.252716,137.827011 180.130890,137.827011 
	C176.115280,129.257874 172.462021,121.461975 168.480103,112.958817 
M150.853668,167.598709 
	C152.518158,170.297791 154.182632,172.996887 155.669220,175.407516 
	C163.504486,163.917694 171.052917,152.848480 178.906357,141.332001 
	C175.400162,141.332001 172.504211,141.744888 169.769440,141.256027 
	C160.906662,139.671722 155.767792,143.763947 151.369675,151.102112 
	C148.037338,156.662048 145.735901,161.361038 150.853668,167.598709 
M121.083961,163.256454 
	C118.769730,167.378769 116.455505,171.501099 113.585899,176.612686 
	C126.846039,176.612686 139.181259,176.612686 152.026642,176.612686 
	C149.391022,172.150208 146.781525,167.578766 143.981201,163.127350 
	C143.457718,162.295227 142.149521,161.419876 141.237732,161.454956 
	C134.658218,161.708069 128.087509,162.190369 121.083961,163.256454 
M98.892044,141.332352 
	C97.644402,141.467636 96.396767,141.602921 95.162544,141.736755 
	C100.506325,152.283722 105.687424,162.509583 111.191261,173.372452 
	C113.200356,167.851120 120.383553,163.926102 117.566551,157.823746 
	C114.117859,150.352997 112.861542,138.961792 98.892044,141.332352 
M96.652817,136.320450 
	C98.905182,138.736374 108.227257,138.683304 110.550560,135.999496 
	C114.220146,131.760483 117.652512,127.316124 121.127304,123.030190 
	C118.770988,119.064293 116.733948,115.635765 114.907364,112.561470 
	C108.784538,120.496948 102.918564,128.099533 96.652817,136.320450 
M137.911469,114.589607 
	C131.587189,113.559471 125.262894,112.529335 118.741814,111.467140 
	C119.347885,112.711998 119.967049,113.713776 120.343437,114.799698 
	C123.254646,123.198860 130.911697,123.241234 137.750427,124.659065 
	C138.370346,124.787590 139.484650,124.326515 139.805832,123.797249 
	C141.387573,121.190842 142.779099,118.469017 144.471451,115.358429 
	C142.031570,115.107674 140.393387,114.939316 137.911469,114.589607 
M143.468521,132.019333 
	C145.610565,138.519058 146.960938,139.159988 154.158554,136.913483 
	C151.867722,131.035065 149.583755,125.174301 147.135834,118.892784 
	C144.410370,122.983292 140.874344,126.205811 143.468521,132.019333 
M148.288147,149.818024 
	C150.066483,147.168930 151.844818,144.519852 153.694931,141.763855 
	C148.058762,140.312042 143.975525,141.340698 141.735718,146.817322 
	C140.452744,149.954346 140.888840,151.540863 144.887268,155.508759 
	C145.879501,153.770996 146.850876,152.069763 148.288147,149.818024 
M128.397385,137.661011 
	C126.817047,134.031998 125.236710,130.402985 123.304550,125.966080 
	C120.035049,130.259674 117.459190,133.642349 114.258797,137.845184 
	C119.444855,137.845184 123.527336,137.845184 128.397385,137.661011 
M130.464951,151.824677 
	C128.420593,153.386734 126.376251,154.948807 124.331902,156.510864 
	C124.640572,156.894974 124.949234,157.279068 125.257904,157.663177 
	C130.102676,157.663177 134.947433,157.663177 139.839569,157.663177 
	C138.636581,150.946671 138.099365,150.592606 130.464951,151.824677 
M118.458214,151.020294 
	C119.244423,152.405121 120.030632,153.789948 120.908783,155.336716 
	C124.413223,152.519470 124.699142,149.746826 122.144112,146.618683 
	C120.051277,144.056396 119.023087,139.660965 113.625916,142.074402 
	C115.192368,144.951630 116.662758,147.652405 118.458214,151.020294 
M128.957565,129.648117 
	C130.095749,131.498947 131.233932,133.349777 132.765060,135.839584 
	C134.506165,132.912796 135.783279,130.765991 137.221634,128.348160 
	C133.662003,127.541222 130.674545,126.863991 127.210762,126.078781 
	C127.815613,127.368614 128.204926,128.198807 128.957565,129.648117 
z"/>
<path fill="#418CE9" opacity="1.000000" stroke="none" 
	d="
M590.981323,189.195740 
	C600.475891,187.161774 607.645935,182.214142 612.438354,174.392868 
	C615.081543,170.079193 617.639343,169.659836 621.401001,172.421509 
	C622.320679,173.096725 623.340271,173.635742 624.289124,174.222031 
	C618.241516,191.507065 598.953857,203.904404 573.691101,199.371109 
	C550.806213,195.264511 535.805786,172.162704 540.022095,147.248169 
	C543.843506,124.666954 562.317932,107.087570 589.679565,110.317223 
	C611.807922,112.929146 629.253845,133.683090 627.462280,155.914627 
	C602.138611,155.914627 576.760132,155.914627 551.470398,155.914627 
	C549.056274,172.547394 565.625854,195.043854 590.981323,189.195740 
M598.497803,146.666153 
	C604.039185,146.666153 609.580566,146.666153 615.222656,146.666153 
	C612.820618,129.698685 597.755676,120.565361 582.835327,120.640167 
	C567.451965,120.717293 554.045593,132.044250 552.629395,146.665680 
	C567.603027,146.665680 582.550720,146.665680 598.497803,146.666153 
z"/>
<path fill="#428CE9" opacity="1.000000" stroke="none" 
	d="
M823.529053,120.447716 
	C834.091736,129.909241 838.537537,141.636551 838.848328,155.823822 
	C813.239502,155.823822 787.861816,155.823822 762.587891,155.823822 
	C760.120178,170.523956 772.151733,186.673523 787.670593,189.467102 
	C801.800354,192.010620 813.618530,187.370773 822.562500,176.143295 
	C827.812561,169.552887 827.604675,169.387283 835.724976,174.671661 
	C831.795410,183.268341 825.951965,190.236893 817.547852,194.684021 
	C796.255432,205.951141 761.534241,202.704468 751.647888,166.423615 
	C746.696045,148.251297 754.982727,126.735306 771.585510,116.104347 
	C786.675232,106.442207 809.303955,108.233582 823.529053,120.447716 
M767.613647,135.166458 
	C765.990906,138.699249 764.368164,142.232025 762.545288,146.200516 
	C784.313599,146.200516 805.247803,146.200516 826.246338,146.200516 
	C824.401733,133.721619 815.202209,123.934944 801.883179,121.406906 
	C788.145203,118.799355 776.290527,122.464417 767.613647,135.166458 
z"/>
<path fill="#428CE9" opacity="1.000000" stroke="none" 
	d="
M424.125183,158.529633 
	C423.149994,179.534927 405.253326,200.373444 380.338562,200.200272 
	C361.041595,200.066116 347.115601,191.539246 339.160736,174.131088 
	C331.696411,157.796341 333.570068,141.966949 344.387024,127.588310 
	C356.324982,111.719498 374.770752,106.409386 394.765228,112.550377 
	C409.940460,117.211220 423.659729,134.295609 424.087067,152.171829 
	C424.134338,154.148956 424.142242,156.127029 424.125183,158.529633 
M362.864380,185.740356 
	C376.997437,192.423096 390.686218,191.761627 402.296478,181.039093 
	C413.326508,170.852356 415.670502,157.667648 410.955658,143.484482 
	C404.606842,124.386063 382.301392,115.191933 365.126404,124.392372 
	C341.044128,137.292984 339.520905,169.751312 362.864380,185.740356 
z"/>
<path fill="#428CE9" opacity="1.000000" stroke="none" 
	d="
M446.797760,137.880310 
	C451.227783,122.022156 463.807526,112.752281 481.551392,112.028076 
	C494.713348,111.490868 506.403168,114.516853 514.080444,126.308029 
	C519.003235,133.868805 519.530640,142.648804 519.702271,151.273727 
	C520.010376,166.757233 519.826904,182.250595 519.828247,197.739838 
	C519.828247,198.370361 519.618835,199.000916 519.464172,199.872650 
	C516.064697,199.872650 512.813171,199.872650 508.851562,199.872650 
	C508.851562,198.010147 508.873199,196.246826 508.848206,194.484146 
	C508.607635,177.511078 508.560974,160.531921 508.041168,143.567307 
	C507.702271,132.506470 502.235352,126.410423 491.356659,124.508484 
	C480.629089,122.632957 470.213531,123.369980 462.334320,132.006607 
	C459.947693,134.622650 458.030762,138.636627 457.835693,142.118805 
	C456.869049,159.375549 456.545532,176.668457 456.011261,193.949081 
	C455.955322,195.758835 456.003754,197.571823 456.003754,199.764832 
	C452.330231,199.764832 448.949860,199.764832 445.269653,199.764832 
	C445.139862,199.035934 444.880249,198.258820 444.881042,197.481964 
	C444.897980,181.353210 444.846924,165.223206 445.059906,149.096741 
	C445.107666,145.480118 446.099701,141.875977 446.797760,137.880310 
z"/>
<path fill="#408BE9" opacity="1.000000" stroke="none" 
	d="
M285.028534,83.857178 
	C303.138428,83.857117 320.753815,83.857117 338.682495,83.857117 
	C338.682495,87.639534 338.682495,91.032753 338.682495,94.814247 
	C330.322784,94.814247 322.059723,94.814247 313.269165,94.814247 
	C313.269165,129.879074 313.269165,164.569733 313.269165,199.628235 
	C309.036072,199.628235 305.323975,199.628235 301.076508,199.628235 
	C301.076508,164.924530 301.076508,130.232315 301.076508,95.159103 
	C292.298645,95.159103 284.037354,95.159103 275.390320,95.159103 
	C275.390320,91.398300 275.390320,88.010963 275.390320,83.857246 
	C278.358643,83.857246 281.446320,83.857246 285.028534,83.857178 
z"/>
<path fill="#428CE9" opacity="1.000000" stroke="none" 
	d="
M722.313965,112.551224 
	C726.593689,115.368202 730.521240,118.041801 735.052063,121.126083 
	C732.328491,124.064156 730.253845,126.302162 728.318848,128.389572 
	C723.964905,125.876740 720.284973,123.274750 716.236084,121.527786 
	C710.103333,118.881660 701.978760,121.515274 699.014587,126.565216 
	C695.823120,132.002640 697.560974,138.190170 703.945312,143.002121 
	C706.838562,145.182816 710.106628,146.861053 713.164856,148.829239 
	C717.886536,151.867996 723.008484,154.465790 727.182861,158.135361 
	C735.140198,165.130356 736.745667,174.148758 733.308533,184.026474 
	C730.230408,192.872467 721.084106,199.482346 711.758118,200.042191 
	C700.595215,200.712311 691.260803,197.164505 683.728943,188.223038 
	C685.879761,185.687103 687.985535,183.204285 689.416565,181.517014 
	C695.340698,184.363174 700.382202,187.638718 705.908691,189.227310 
	C713.039978,191.277237 721.034119,186.664810 723.474548,180.339615 
	C725.885071,174.091934 723.145935,167.236008 716.268494,162.990616 
	C710.489624,159.423340 704.420349,156.316437 698.722107,152.630859 
	C690.860413,147.545898 686.663574,140.134552 687.560974,130.716034 
	C688.990051,115.718033 703.190918,106.634277 717.686401,111.028542 
	C719.119202,111.462891 720.536987,111.946884 722.313965,112.551224 
z"/>
<path fill="#448DE9" opacity="1.000000" stroke="none" 
	d="
M885.354248,189.954163 
	C887.154175,189.401352 888.540894,188.886902 890.387085,188.201950 
	C891.499695,191.084641 892.543945,193.790207 893.564392,196.433929 
	C884.192993,202.834290 869.953613,200.935654 862.504700,192.540207 
	C857.213196,186.576111 854.254272,179.541962 854.208984,171.676041 
	C854.038208,142.030670 854.153992,112.383629 854.176147,82.737228 
	C854.176514,82.250755 854.350342,81.764412 854.530823,80.819122 
	C857.847839,80.819122 861.218140,80.819122 865.014648,80.819122 
	C865.014648,94.324936 865.014648,107.752968 865.014648,121.729080 
	C871.968994,121.729080 878.533569,121.729080 885.478699,121.729080 
	C885.478699,125.146179 885.478699,128.017227 885.478699,131.438736 
	C879.089722,131.438736 872.825745,131.438736 866.474548,131.438736 
	C866.117432,132.676376 865.706909,133.434998 865.708252,134.192902 
	C865.731140,147.180573 865.515259,160.178009 865.956421,173.152740 
	C866.330872,184.166565 874.412170,190.987198 885.354248,189.954163 
z"/>
<path fill="#FBFDFF" opacity="1.000000" stroke="none" 
	d="
M126.435379,208.279953 
	C115.558395,209.089325 105.139633,209.816650 93.945503,210.598099 
	C98.329826,202.885284 102.741966,195.904205 106.355865,188.531799 
	C109.545258,182.025406 113.601112,178.846222 121.328094,179.679306 
	C131.524048,180.778580 141.847733,180.669006 152.108673,181.223724 
	C153.263123,181.286148 154.869217,181.983749 155.416397,182.896210 
	C160.759171,191.805527 165.921204,200.823227 171.413742,210.291107 
	C156.001266,209.566467 141.447433,208.882202 126.435379,208.279953 
z"/>
<path fill="#FAFCFE" opacity="1.000000" stroke="none" 
	d="
M81.669518,185.301270 
	C74.697090,171.850128 67.908089,158.740021 61.112991,145.633057 
	C60.516193,144.481903 59.879429,143.351486 58.819344,141.396530 
	C69.184128,141.396530 78.921829,141.328018 88.655045,141.505341 
	C89.600357,141.522568 90.862534,142.882095 91.395149,143.918030 
	C96.699585,154.234924 101.973618,164.570587 106.994492,175.026642 
	C107.712166,176.521210 107.688339,179.039841 106.901451,180.480133 
	C101.919304,189.599228 96.625626,198.548111 90.927452,208.433182 
	C87.676376,200.269791 84.763847,192.956467 81.669518,185.301270 
z"/>
<path fill="#F9FCFE" opacity="1.000000" stroke="none" 
	d="
M107.511749,99.499603 
	C112.853462,105.591911 112.099220,111.096024 107.329765,116.797066 
	C102.334427,122.768112 97.824921,129.146545 92.805328,135.095703 
	C91.598106,136.526505 89.236671,137.679474 87.368042,137.737549 
	C78.565132,138.011124 69.749016,137.859390 61.189224,137.859390 
	C73.842697,120.462769 86.503540,103.056023 99.290092,85.476433 
	C101.793480,89.763062 104.547607,94.479050 107.511749,99.499603 
z"/>
<path fill="#F9FBFE" opacity="1.000000" stroke="none" 
	d="
M141.668777,89.358658 
	C147.527420,89.757774 152.920181,90.147865 158.984741,90.586548 
	C155.001953,97.509491 151.395279,103.941147 147.566544,110.237778 
	C147.061462,111.068428 145.344635,111.738518 144.321396,111.587265 
	C135.648361,110.305222 126.982506,108.937157 118.376480,107.274124 
	C116.848694,106.978889 115.167831,105.465065 114.310638,104.055908 
	C110.447838,97.705788 106.856148,91.190758 102.836403,84.157173 
	C115.998169,85.938469 128.600540,87.644051 141.668777,89.358658 
z"/>
<path fill="#F9FCFE" opacity="1.000000" stroke="none" 
	d="
M168.644440,113.312447 
	C172.462021,121.461975 176.115280,129.257874 180.130890,137.827011 
	C173.252716,137.827011 166.867340,137.928940 160.492371,137.717102 
	C159.536423,137.685318 158.199249,136.363480 157.770004,135.333527 
	C155.156677,129.063004 152.705704,122.722656 150.333572,116.356049 
	C149.958618,115.349731 149.834320,113.857628 150.314529,112.987846 
	C153.820862,106.636818 157.511276,100.387421 161.562622,93.381287 
	C164.081314,100.509605 166.280716,106.734207 168.644440,113.312447 
z"/>
<path fill="#F5F9FE" opacity="1.000000" stroke="none" 
	d="
M150.660675,167.281586 
	C145.735901,161.361038 148.037338,156.662048 151.369675,151.102112 
	C155.767792,143.763947 160.906662,139.671722 169.769440,141.256027 
	C172.504211,141.744888 175.400162,141.332001 178.906357,141.332001 
	C171.052917,152.848480 163.504486,163.917694 155.669220,175.407516 
	C154.182632,172.996887 152.518158,170.297791 150.660675,167.281586 
z"/>
<path fill="#F8FBFE" opacity="1.000000" stroke="none" 
	d="
M121.298996,162.928253 
	C128.087509,162.190369 134.658218,161.708069 141.237732,161.454956 
	C142.149521,161.419876 143.457718,162.295227 143.981201,163.127350 
	C146.781525,167.578766 149.391022,172.150208 152.026642,176.612686 
	C139.181259,176.612686 126.846039,176.612686 113.585899,176.612686 
	C116.455505,171.501099 118.769730,167.378769 121.298996,162.928253 
z"/>
<path fill="#F5F9FE" opacity="1.000000" stroke="none" 
	d="
M99.329201,141.332520 
	C112.861542,138.961792 114.117859,150.352997 117.566551,157.823746 
	C120.383553,163.926102 113.200356,167.851120 111.191261,173.372452 
	C105.687424,162.509583 100.506325,152.283722 95.162544,141.736755 
	C96.396767,141.602921 97.644402,141.467636 99.329201,141.332520 
z"/>
<path fill="#F5F9FE" opacity="1.000000" stroke="none" 
	d="
M96.852699,136.011292 
	C102.918564,128.099533 108.784538,120.496948 114.907364,112.561470 
	C116.733948,115.635765 118.770988,119.064293 121.127304,123.030190 
	C117.652512,127.316124 114.220146,131.760483 110.550560,135.999496 
	C108.227257,138.683304 98.905182,138.736374 96.852699,136.011292 
z"/>
<path fill="#F2F7FE" opacity="1.000000" stroke="none" 
	d="
M138.333328,114.680283 
	C140.393387,114.939316 142.031570,115.107674 144.471451,115.358429 
	C142.779099,118.469017 141.387573,121.190842 139.805832,123.797249 
	C139.484650,124.326515 138.370346,124.787590 137.750427,124.659065 
	C130.911697,123.241234 123.254646,123.198860 120.343437,114.799698 
	C119.967049,113.713776 119.347885,112.711998 118.741814,111.467140 
	C125.262894,112.529335 131.587189,113.559471 138.333328,114.680283 
z"/>
<path fill="#F2F7FE" opacity="1.000000" stroke="none" 
	d="
M143.313904,131.659149 
	C140.874344,126.205811 144.410370,122.983292 147.135834,118.892784 
	C149.583755,125.174301 151.867722,131.035065 154.158554,136.913483 
	C146.960938,139.159988 145.610565,138.519058 143.313904,131.659149 
z"/>
<path fill="#E8F1FC" opacity="1.000000" stroke="none" 
	d="
M148.055206,150.093292 
	C146.850876,152.069763 145.879501,153.770996 144.887268,155.508759 
	C140.888840,151.540863 140.452744,149.954346 141.735718,146.817322 
	C143.975525,141.340698 148.058762,140.312042 153.694931,141.763855 
	C151.844818,144.519852 150.066483,147.168930 148.055206,150.093292 
z"/>
<path fill="#F2F7FE" opacity="1.000000" stroke="none" 
	d="
M128.003601,137.753098 
	C123.527336,137.845184 119.444855,137.845184 114.258797,137.845184 
	C117.459190,133.642349 120.035049,130.259674 123.304550,125.966080 
	C125.236710,130.402985 126.817047,134.031998 128.003601,137.753098 
z"/>
<path fill="#E8F1FC" opacity="1.000000" stroke="none" 
	d="
M130.867035,151.783295 
	C138.099365,150.592606 138.636581,150.946671 139.839569,157.663177 
	C134.947433,157.663177 130.102676,157.663177 125.257904,157.663177 
	C124.949234,157.279068 124.640572,156.894974 124.331902,156.510864 
	C126.376251,154.948807 128.420593,153.386734 130.867035,151.783295 
z"/>
<path fill="#E8F1FC" opacity="1.000000" stroke="none" 
	d="
M118.295677,150.686737 
	C116.662758,147.652405 115.192368,144.951630 113.625916,142.074402 
	C119.023087,139.660965 120.051277,144.056396 122.144112,146.618683 
	C124.699142,149.746826 124.413223,152.519470 120.908783,155.336716 
	C120.030632,153.789948 119.244423,152.405121 118.295677,150.686737 
z"/>
<path fill="#E8F1FC" opacity="1.000000" stroke="none" 
	d="
M128.775909,129.338562 
	C128.204926,128.198807 127.815613,127.368614 127.210762,126.078781 
	C130.674545,126.863991 133.662003,127.541222 137.221634,128.348160 
	C135.783279,130.765991 134.506165,132.912796 132.765060,135.839584 
	C131.233932,133.349777 130.095749,131.498947 128.775909,129.338562 
z"/>
<path fill="#F8FBFE" opacity="1.000000" stroke="none" 
	d="
M597.998108,146.665924 
	C582.550720,146.665680 567.603027,146.665680 552.629395,146.665680 
	C554.045593,132.044250 567.451965,120.717293 582.835327,120.640167 
	C597.755676,120.565361 612.820618,129.698685 615.222656,146.666153 
	C609.580566,146.666153 604.039185,146.666153 597.998108,146.665924 
z"/>
<path fill="#F8FBFE" opacity="1.000000" stroke="none" 
	d="
M767.780640,134.840714 
	C776.290527,122.464417 788.145203,118.799355 801.883179,121.406906 
	C815.202209,123.934944 824.401733,133.721619 826.246338,146.200516 
	C805.247803,146.200516 784.313599,146.200516 762.545288,146.200516 
	C764.368164,142.232025 765.990906,138.699249 767.780640,134.840714 
z"/>
<path fill="#FDFEFF" opacity="1.000000" stroke="none" 
	d="
M362.566162,185.521896 
	C339.520905,169.751312 341.044128,137.292984 365.126404,124.392372 
	C382.301392,115.191933 404.606842,124.386063 410.955658,143.484482 
	C415.670502,157.667648 413.326508,170.852356 402.296478,181.039093 
	C390.686218,191.761627 376.997437,192.423096 362.566162,185.521896 
z"/>
</svg>